<svg width="40" height="40" viewBox="0 0 40 40" fill="none" xmlns="http://www.w3.org/2000/svg">
<path d="M39.1406 17.4461H34.7109C34.4594 17.4461 34.2188 17.5555 34.0492 17.7469L22.0781 31.5445V0.75C22.0781 0.509375 21.8813 0.3125 21.6406 0.3125H18.3594C18.1187 0.3125 17.9219 0.509375 17.9219 0.75V31.5445L5.95078 17.7469C5.78672 17.5555 5.54609 17.4461 5.28906 17.4461H0.859373C0.487498 17.4461 0.285154 17.8891 0.531248 18.168L18.682 39.0859C18.8461 39.2752 19.0489 39.427 19.2768 39.5311C19.5047 39.6351 19.7522 39.6889 20.0027 39.6889C20.2532 39.6889 20.5008 39.6351 20.7287 39.5311C20.9565 39.427 21.1594 39.2752 21.3234 39.0859L39.4688 18.168C39.7148 17.8836 39.5125 17.4461 39.1406 17.4461Z" fill="white"/>
</svg>
