<svg width="461" height="290" viewBox="0 0 461 290" fill="none" xmlns="http://www.w3.org/2000/svg">
<g clip-path="url(#clip0)">
<path d="M439.605 290H49.9644C46.4994 290 43.1763 288.622 40.7261 286.17C38.276 283.717 36.8995 280.391 36.8995 276.923C178.144 260.493 316.734 260.493 452.67 276.923C452.67 280.391 451.294 283.717 448.843 286.17C446.393 288.622 443.07 290 439.605 290Z" fill="#CCCCCC"/>
<path d="M452.67 277.692L36.8995 276.923L85.0859 195.769L85.3164 195.385V16.5308C85.3162 14.3599 85.7433 12.2102 86.5732 10.2045C87.4031 8.19881 88.6197 6.37641 90.1533 4.84135C91.687 3.30629 93.5077 2.08865 95.5115 1.25796C97.5154 0.42728 99.6631 -0.000181347 101.832 5.77135e-08H385.432C387.601 -0.000181347 389.749 0.42728 391.752 1.25796C393.756 2.08865 395.577 3.30629 397.111 4.84135C398.644 6.37641 399.861 8.19881 400.691 10.2045C401.521 12.2102 401.948 14.3599 401.948 16.5308V196.615L452.67 277.692Z" fill="#E6E6E6"/>
<path d="M101.455 11.5385C100.029 11.5401 98.6617 12.1079 97.6532 13.1173C96.6446 14.1268 96.0773 15.4955 96.0757 16.9231V180C96.0774 181.428 96.6447 182.796 97.6532 183.806C98.6618 184.815 100.029 185.383 101.455 185.385H388.114C389.54 185.383 390.908 184.815 391.916 183.806C392.925 182.796 393.492 181.428 393.494 180V16.9231C393.492 15.4955 392.925 14.1269 391.916 13.1174C390.908 12.108 389.54 11.5401 388.114 11.5385H101.455Z" fill="white"/>
<path d="M103.339 206.923C102.899 206.924 102.467 207.051 102.096 207.289C101.725 207.527 101.43 207.866 101.245 208.266L86.397 240.574C86.2353 240.926 86.1646 241.312 86.1913 241.698C86.2181 242.084 86.3414 242.457 86.55 242.783C86.7586 243.109 87.0457 243.377 87.3849 243.563C87.7241 243.749 88.1046 243.846 88.4912 243.846H400.731C401.124 243.846 401.51 243.746 401.854 243.554C402.197 243.362 402.485 243.086 402.692 242.752C402.899 242.417 403.016 242.035 403.034 241.642C403.051 241.249 402.968 240.858 402.792 240.506L386.653 208.199C386.463 207.815 386.169 207.492 385.805 207.266C385.44 207.041 385.02 206.922 384.592 206.923L103.339 206.923Z" fill="#CCCCCC"/>
<path d="M243.632 8.84616C245.542 8.84616 247.09 7.29637 247.09 5.38462C247.09 3.47286 245.542 1.92308 243.632 1.92308C241.722 1.92308 240.174 3.47286 240.174 5.38462C240.174 7.29637 241.722 8.84616 243.632 8.84616Z" fill="white"/>
<path d="M212.941 250C212.435 250.001 211.942 250.168 211.54 250.477C211.137 250.785 210.848 251.218 210.715 251.707L206.991 265.554C206.899 265.896 206.887 266.254 206.955 266.602C207.024 266.949 207.172 267.276 207.387 267.557C207.602 267.839 207.879 268.066 208.197 268.223C208.514 268.38 208.863 268.462 209.217 268.462H280.047C280.414 268.462 280.777 268.374 281.103 268.205C281.43 268.036 281.712 267.792 281.925 267.492C282.138 267.193 282.276 266.846 282.328 266.482C282.381 266.118 282.345 265.747 282.225 265.399L277.436 251.553C277.279 251.099 276.985 250.706 276.595 250.428C276.204 250.15 275.737 250 275.258 250H212.941Z" fill="#CCCCCC"/>
<path d="M401.948 192.692V195.77H85.0859L85.3241 195.385V192.692H401.948Z" fill="#CCCCCC"/>
<path d="M362.837 199.741C362.714 199.741 362.594 199.782 362.496 199.857C362.398 199.932 362.327 200.037 362.295 200.157L361.388 203.528C361.366 203.612 361.363 203.699 361.379 203.784C361.396 203.868 361.432 203.948 361.485 204.016C361.537 204.085 361.604 204.14 361.682 204.178C361.759 204.217 361.844 204.236 361.93 204.236H379.178C379.268 204.236 379.356 204.215 379.436 204.174C379.515 204.133 379.584 204.073 379.636 204C379.687 203.927 379.721 203.843 379.734 203.754C379.747 203.666 379.738 203.575 379.709 203.491L378.543 200.119C378.504 200.008 378.433 199.913 378.338 199.845C378.243 199.777 378.129 199.741 378.012 199.741H362.837Z" fill="#CCCCCC"/>
<path d="M337.653 199.741C337.529 199.741 337.409 199.782 337.311 199.857C337.214 199.932 337.143 200.037 337.111 200.157L336.204 203.528C336.181 203.612 336.178 203.699 336.195 203.784C336.212 203.868 336.248 203.948 336.3 204.016C336.353 204.085 336.42 204.14 336.497 204.178C336.575 204.217 336.66 204.236 336.746 204.236H353.994C354.083 204.236 354.172 204.215 354.251 204.174C354.331 204.133 354.399 204.073 354.451 204C354.503 203.927 354.537 203.843 354.55 203.754C354.562 203.666 354.554 203.575 354.524 203.491L353.358 200.119C353.32 200.008 353.248 199.913 353.153 199.845C353.058 199.777 352.944 199.741 352.828 199.741H337.653Z" fill="#CCCCCC"/>
<path d="M264.688 221.165H266.04L263.337 40.3066H261.985L262.039 43.9147H231.74L231.794 40.3066H230.443L227.739 221.165H229.091L229.266 209.438H264.513L264.688 221.165ZM262.74 90.8206H231.039L231.37 68.7207H262.41L262.74 90.8206ZM262.76 92.1737L263.09 114.274H230.689L231.019 92.1737H262.76ZM263.111 115.627L263.441 137.726H230.338L230.668 115.627H263.111ZM263.461 139.08L263.792 161.179H229.988L230.318 139.08H263.461ZM263.812 162.532L264.142 184.632H229.637L229.967 162.532H263.812ZM262.059 45.2678L262.389 67.3677H231.39L231.72 45.2678H262.059ZM229.286 208.085L229.617 185.985H264.163L264.493 208.085H229.286Z" fill="#3F3D56"/>
<path d="M240.193 102.6C252.367 102.6 262.236 92.7221 262.236 80.537C262.236 68.3519 252.367 58.4739 240.193 58.4739C228.019 58.4739 218.15 68.3519 218.15 80.537C218.15 92.7221 228.019 102.6 240.193 102.6Z" fill="#2F2E41"/>
<path d="M253.159 95.7845L246.569 96.9784L248.707 108.795L255.296 107.601L253.159 95.7845Z" fill="#2F2E41"/>
<path d="M239.98 98.1724L233.39 99.3664L235.528 111.183L242.117 109.989L239.98 98.1724Z" fill="#2F2E41"/>
<path d="M239.026 113.67C241.378 111.677 242.679 109.345 241.932 108.462C241.185 107.579 238.673 108.48 236.321 110.473C233.969 112.467 232.668 114.799 233.415 115.682C234.162 116.564 236.674 115.664 239.026 113.67Z" fill="#2F2E41"/>
<path d="M251.93 111.332C254.282 109.338 255.583 107.007 254.836 106.124C254.089 105.241 251.577 106.142 249.225 108.135C246.873 110.129 245.572 112.461 246.319 113.343C247.066 114.226 249.578 113.326 251.93 111.332Z" fill="#2F2E41"/>
<path d="M238.65 82.6808C242.81 82.6808 246.183 79.3048 246.183 75.1402C246.183 70.9757 242.81 67.5997 238.65 67.5997C234.489 67.5997 231.116 70.9757 231.116 75.1402C231.116 79.3048 234.489 82.6808 238.65 82.6808Z" fill="white"/>
<path d="M235.553 74.9509C236.94 74.9509 238.065 73.8255 238.065 72.4373C238.065 71.0492 236.94 69.9238 235.553 69.9238C234.167 69.9238 233.042 71.0492 233.042 72.4373C233.042 73.8255 234.167 74.9509 235.553 74.9509Z" fill="#3F3D56"/>
<path d="M257.582 56.5347C257.913 48.3666 250.88 41.4481 241.872 41.0819C232.865 40.7157 225.294 47.0404 224.963 55.2085C224.631 63.3766 230.893 65.2324 239.9 65.5987C248.908 65.9649 257.25 64.7028 257.582 56.5347Z" fill="#E39510"/>
<path d="M230.582 78.9821C231.009 77.1179 226.546 74.5031 220.613 73.1419C214.679 71.7806 209.524 72.1885 209.097 74.0528C208.67 75.9171 213.133 78.5318 219.066 79.8931C225 81.2543 230.155 80.8464 230.582 78.9821Z" fill="#2F2E41"/>
<path d="M273.851 86.1844C274.278 84.3201 269.815 81.7053 263.882 80.3441C257.949 78.9829 252.793 79.3907 252.366 81.255C251.939 83.1193 256.403 85.7341 262.336 87.0953C268.269 88.4565 273.425 88.0487 273.851 86.1844Z" fill="#2F2E41"/>
<path d="M246.247 89.2318C246.366 89.8815 246.355 90.5483 246.217 91.1941C246.078 91.8398 245.813 92.4518 245.438 92.9951C245.063 93.5384 244.584 94.0024 244.029 94.3605C243.475 94.7186 242.855 94.9638 242.206 95.0821C241.557 95.2004 240.891 95.1895 240.246 95.0499C239.601 94.9104 238.989 94.645 238.447 94.2689C237.904 93.8928 237.441 93.4134 237.084 92.8581C236.727 92.3028 236.482 91.6824 236.365 91.0325L236.363 91.0228C235.869 88.2908 237.979 87.3241 240.709 86.8295C243.438 86.335 245.753 86.4999 246.247 89.2318Z" fill="white"/>
<path d="M165.535 155.472C167.763 149.638 168.085 144.341 166.256 143.641C164.426 142.941 161.137 147.103 158.909 152.937C156.681 158.771 156.358 164.067 158.188 164.767C160.018 165.467 163.307 161.306 165.535 155.472Z" fill="#2F2E41"/>
<path d="M163.641 174.906C165.64 162.576 157.274 150.959 144.956 148.958C132.637 146.957 121.031 155.331 119.032 167.66C117.033 179.99 125.398 191.608 137.717 193.608C150.035 195.609 161.642 187.236 163.641 174.906Z" fill="#2F2E41"/>
<path d="M137.904 189.033H131.039V201.344H137.904V189.033Z" fill="#2F2E41"/>
<path d="M151.633 189.033H144.768V201.344H151.633V189.033Z" fill="#2F2E41"/>
<path d="M136.76 203.634C139.919 203.634 142.48 202.673 142.48 201.487C142.48 200.301 139.919 199.34 136.76 199.34C133.6 199.34 131.039 200.301 131.039 201.487C131.039 202.673 133.6 203.634 136.76 203.634Z" fill="#2F2E41"/>
<path d="M150.489 203.348C153.648 203.348 156.21 202.387 156.21 201.201C156.21 200.015 153.648 199.054 150.489 199.054C147.33 199.054 144.768 200.015 144.768 201.201C144.768 202.387 147.33 203.348 150.489 203.348Z" fill="#2F2E41"/>
<path d="M119.417 150.25C117.592 142.071 123.425 133.807 132.444 131.791C141.463 129.776 150.254 134.772 152.078 142.95C153.903 151.129 147.925 154.145 138.906 156.161C129.887 158.177 121.241 158.429 119.417 150.25Z" fill="#E39510"/>
<path d="M126.093 165.635C126.933 163.863 123.043 160.258 117.405 157.581C111.767 154.905 106.516 154.171 105.677 155.943C104.837 157.714 108.727 161.32 114.365 163.996C120.003 166.673 125.254 167.406 126.093 165.635Z" fill="#2F2E41"/>
<path d="M43.4959 216.801C55.9755 216.801 66.0922 206.675 66.0922 194.184C66.0922 181.693 55.9755 171.567 43.4959 171.567C31.0163 171.567 20.8996 181.693 20.8996 194.184C20.8996 206.675 31.0163 216.801 43.4959 216.801Z" fill="#2F2E41"/>
<path d="M40.0636 211.934H33.1989V224.245H40.0636V211.934Z" fill="#2F2E41"/>
<path d="M53.793 211.934H46.9283V224.245H53.793V211.934Z" fill="#2F2E41"/>
<path d="M38.9194 226.535C42.0788 226.535 44.64 225.574 44.64 224.388C44.64 223.202 42.0788 222.241 38.9194 222.241C35.76 222.241 33.1988 223.202 33.1988 224.388C33.1988 225.574 35.76 226.535 38.9194 226.535Z" fill="#2F2E41"/>
<path d="M52.6489 226.249C55.8083 226.249 58.3695 225.288 58.3695 224.102C58.3695 222.916 55.8083 221.955 52.6489 221.955C49.4895 221.955 46.9283 222.916 46.9283 224.102C46.9283 225.288 49.4895 226.249 52.6489 226.249Z" fill="#2F2E41"/>
<path d="M44.068 196.188C48.3332 196.188 51.7908 192.727 51.7908 188.458C51.7908 184.189 48.3332 180.728 44.068 180.728C39.8028 180.728 36.3452 184.189 36.3452 188.458C36.3452 192.727 39.8028 196.188 44.068 196.188Z" fill="white"/>
<path d="M44.068 191.035C45.4897 191.035 46.6423 189.881 46.6423 188.458C46.6423 187.035 45.4897 185.882 44.068 185.882C42.6463 185.882 41.4937 187.035 41.4937 188.458C41.4937 189.881 42.6463 191.035 44.068 191.035Z" fill="#3F3D56"/>
<path d="M21.5767 173.151C19.7522 164.972 25.5845 156.708 34.6036 154.692C43.6228 152.676 52.4133 157.672 54.2378 165.851C56.0624 174.03 50.0851 177.046 41.066 179.062C32.0468 181.078 23.4013 181.33 21.5767 173.151Z" fill="#E6E6E6"/>
<path d="M59.972 113.384C62.1998 107.55 62.5225 102.253 60.6927 101.553C58.8629 100.853 55.5736 105.015 53.3458 110.849C51.1181 116.683 50.7954 121.98 52.6251 122.68C54.4549 123.38 57.7442 119.218 59.972 113.384Z" fill="#2F2E41"/>
<path d="M58.0777 132.818C60.0767 120.489 51.7111 108.871 39.3927 106.87C27.0742 104.87 15.4676 113.243 13.4686 125.573C11.4695 137.903 19.8351 149.52 32.1536 151.521C44.4721 153.522 56.0787 145.148 58.0777 132.818Z" fill="#2F2E41"/>
<path d="M32.3408 146.946H25.4761V159.256H32.3408V146.946Z" fill="#2F2E41"/>
<path d="M46.0702 146.946H39.2055V159.256H46.0702V146.946Z" fill="#2F2E41"/>
<path d="M31.1967 161.547C34.3561 161.547 36.9172 160.585 36.9172 159.4C36.9172 158.214 34.3561 157.252 31.1967 157.252C28.0373 157.252 25.4761 158.214 25.4761 159.4C25.4761 160.585 28.0373 161.547 31.1967 161.547Z" fill="#2F2E41"/>
<path d="M44.9261 161.26C48.0855 161.26 50.6467 160.299 50.6467 159.113C50.6467 157.927 48.0855 156.966 44.9261 156.966C41.7667 156.966 39.2055 157.927 39.2055 159.113C39.2055 160.299 41.7667 161.26 44.9261 161.26Z" fill="#2F2E41"/>
<path d="M36.3452 131.2C40.6104 131.2 44.068 127.739 44.068 123.47C44.068 119.201 40.6104 115.74 36.3452 115.74C32.08 115.74 28.6224 119.201 28.6224 123.47C28.6224 127.739 32.08 131.2 36.3452 131.2Z" fill="white"/>
<path d="M36.3452 126.046C37.7669 126.046 38.9194 124.893 38.9194 123.47C38.9194 122.047 37.7669 120.893 36.3452 120.893C34.9234 120.893 33.7709 122.047 33.7709 123.47C33.7709 124.893 34.9234 126.046 36.3452 126.046Z" fill="#3F3D56"/>
<path d="M13.8539 108.162C12.0294 99.9836 17.8617 91.7193 26.8809 89.7036C35.9 87.6878 44.6905 92.6839 46.5151 100.863C48.3396 109.041 42.3623 112.058 33.3432 114.073C24.3241 116.089 15.6785 116.341 13.8539 108.162Z" fill="#E39510"/>
<path d="M20.5303 123.547C21.3698 121.776 17.4799 118.17 11.8421 115.494C6.20422 112.817 0.953347 112.084 0.113917 113.855C-0.725513 115.627 3.16437 119.232 8.80221 121.909C14.4401 124.585 19.6909 125.319 20.5303 123.547Z" fill="#2F2E41"/>
<path d="M24.6739 137.355C24.6739 139.569 30.3683 143.94 36.6871 143.94C43.0059 143.94 48.9304 137.708 48.9304 135.494C48.9304 133.28 43.0059 135.923 36.6871 135.923C30.3683 135.923 24.6739 135.141 24.6739 137.355Z" fill="white"/>
<path d="M57.989 42.8365C57.5717 42.8369 57.1716 43.0031 56.8765 43.2984C56.5814 43.5938 56.4154 43.9942 56.4149 44.4119V109.532C56.4154 109.949 56.5814 110.35 56.8765 110.645C57.1716 110.94 57.5717 111.107 57.989 111.107H208.571C208.988 111.107 209.388 110.94 209.683 110.645C209.978 110.35 210.144 109.949 210.145 109.532V44.4119C210.144 43.9942 209.978 43.5938 209.683 43.2984C209.388 43.0031 208.988 42.8369 208.571 42.8365H57.989Z" fill="#E39510"/>
<path d="M98.6483 92.2649C107.087 92.2649 113.927 85.4179 113.927 76.9717C113.927 68.5255 107.087 61.6786 98.6483 61.6786C90.2099 61.6786 83.3692 68.5255 83.3692 76.9717C83.3692 85.4179 90.2099 92.2649 98.6483 92.2649Z" fill="white"/>
<path d="M133.133 74.937C132.664 74.9447 132.217 75.1365 131.888 75.471C131.56 75.8055 131.375 76.2559 131.375 76.7251C131.375 77.1943 131.56 77.6447 131.888 77.9792C132.217 78.3136 132.664 78.5054 133.133 78.5131H181.374C181.609 78.5172 181.842 78.4749 182.061 78.3887C182.279 78.3025 182.478 78.174 182.647 78.0107C182.816 77.8474 182.951 77.6524 183.044 77.4368C183.138 77.2212 183.188 76.9894 183.191 76.7544C183.195 76.5195 183.153 76.2861 183.067 76.0676C182.98 75.8491 182.852 75.6498 182.688 75.481C182.525 75.3122 182.33 75.1773 182.115 75.0839C181.899 74.9906 181.668 74.9407 181.433 74.937C181.413 74.9367 181.394 74.9367 181.374 74.937H133.133Z" fill="white"/>
<path d="M133.133 64.5771C132.664 64.5848 132.217 64.7766 131.888 65.1111C131.56 65.4456 131.375 65.896 131.375 66.3652C131.375 66.8344 131.56 67.2848 131.888 67.6193C132.217 67.9538 132.664 68.1455 133.133 68.1532H157.223C157.458 68.1573 157.691 68.115 157.91 68.0288C158.128 67.9426 158.327 67.8141 158.496 67.6508C158.665 67.4875 158.8 67.2925 158.893 67.0769C158.987 66.8614 159.037 66.6295 159.041 66.3945C159.045 66.1596 159.002 65.9262 158.916 65.7077C158.829 65.4892 158.701 65.2898 158.538 65.1211C158.374 64.9523 158.179 64.8174 157.964 64.724C157.749 64.6307 157.517 64.5807 157.282 64.5771C157.263 64.5768 157.243 64.5768 157.223 64.5771H133.133Z" fill="white"/>
<path d="M133.133 85.7902C132.664 85.7979 132.217 85.9897 131.888 86.3242C131.56 86.6587 131.375 87.1091 131.375 87.5783C131.375 88.0475 131.56 88.4979 131.888 88.8324C132.217 89.1669 132.664 89.3587 133.133 89.3664H181.374C181.609 89.3704 181.842 89.3281 182.061 89.2419C182.279 89.1557 182.478 89.0273 182.647 88.864C182.816 88.7006 182.951 88.5056 183.044 88.2901C183.138 88.0745 183.188 87.8426 183.191 87.6077C183.195 87.3728 183.153 87.1394 183.067 86.9209C182.98 86.7024 182.852 86.503 182.688 86.3342C182.525 86.1654 182.33 86.0305 182.115 85.9372C181.899 85.8438 181.668 85.7939 181.433 85.7902C181.413 85.7899 181.394 85.7899 181.374 85.7902H133.133Z" fill="white"/>
<path d="M367.425 206.243C369.254 205.542 368.932 200.246 366.704 194.412C364.476 188.578 361.187 184.416 359.357 185.116C357.527 185.816 357.85 191.113 360.078 196.947C362.306 202.781 365.595 206.943 367.425 206.243Z" fill="#2F2E41"/>
<path d="M383.174 239.81C395.493 237.809 403.858 226.192 401.859 213.862C399.86 201.532 388.254 193.159 375.935 195.16C363.617 197.161 355.251 208.778 357.25 221.108C359.249 233.437 370.856 241.811 383.174 239.81Z" fill="#2F2E41"/>
<path d="M389.851 235.235H382.987L384.33 249.978L389.863 248.473L389.851 235.235Z" fill="#2F2E41"/>
<path d="M374.886 235.273H368.021L369.364 250.016L374.648 248.473L374.886 235.273Z" fill="#2F2E41"/>
<path d="M369.169 250.709C372.32 250.478 374.805 249.333 374.718 248.15C374.632 246.967 372.007 246.195 368.856 246.426C365.706 246.656 363.221 247.802 363.308 248.985C363.394 250.168 366.018 250.939 369.169 250.709Z" fill="#2F2E41"/>
<path d="M378.982 219.489C383.248 219.489 386.705 216.028 386.705 211.759C386.705 207.49 383.248 204.029 378.982 204.029C374.717 204.029 371.26 207.49 371.26 211.759C371.26 216.028 374.717 219.489 378.982 219.489Z" fill="white"/>
<path d="M378.982 214.336C380.404 214.336 381.557 213.182 381.557 211.759C381.557 210.336 380.404 209.182 378.982 209.182C377.561 209.182 376.408 210.336 376.408 211.759C376.408 213.182 377.561 214.336 378.982 214.336Z" fill="#3F3D56"/>
<path d="M406.284 203.848C409.992 198.824 411.72 193.807 410.144 192.642C408.568 191.478 404.286 194.606 400.579 199.63C396.871 204.653 395.143 209.67 396.719 210.835C398.295 212 402.577 208.872 406.284 203.848Z" fill="#2F2E41"/>
<path d="M368.53 229.147C368.53 227.322 373.223 223.72 378.431 223.72C383.639 223.72 388.521 228.856 388.521 230.68C388.521 232.505 383.638 230.327 378.431 230.327C373.223 230.327 368.53 230.971 368.53 229.147Z" fill="white"/>
<path d="M442.918 198.794L319.228 181.632C318.264 181.497 317.392 180.984 316.805 180.207C316.218 179.43 315.962 178.451 316.095 177.485L329.999 77.09C330.134 76.1248 330.646 75.2525 331.423 74.6645C332.199 74.0765 333.177 73.8208 334.142 73.9535L457.831 91.1163C458.796 91.2512 459.667 91.7635 460.255 92.5408C460.842 93.318 461.098 94.2968 460.965 95.2623L447.06 195.658C446.925 196.623 446.413 197.495 445.637 198.083C444.86 198.671 443.882 198.927 442.918 198.794Z" fill="#E39510"/>
<path d="M398.607 167.462L335.46 158.7C335.381 158.69 335.303 158.673 335.227 158.649L372.264 111.014C372.49 110.716 372.792 110.485 373.138 110.343C373.483 110.2 373.861 110.152 374.231 110.204C374.601 110.255 374.951 110.404 375.245 110.635C375.539 110.866 375.766 111.171 375.904 111.519L391.134 149.048L391.864 150.844L398.607 167.462Z" fill="white"/>
<path opacity="0.2" d="M398.607 167.462L377.047 164.471L389.762 150.552L390.677 149.549L391.135 149.048L391.865 150.844L398.607 167.462Z" fill="black"/>
<path d="M433.767 172.341L379.15 164.762L391.865 150.844L392.78 149.841L409.349 131.702C409.635 131.429 409.975 131.22 410.347 131.088C410.72 130.956 411.116 130.903 411.51 130.934C411.903 130.965 412.286 131.078 412.634 131.267C412.981 131.455 413.285 131.715 413.525 132.029C413.586 132.117 413.641 132.209 413.689 132.304L433.767 172.341Z" fill="white"/>
<path d="M399.375 127.185C404.591 127.185 408.819 122.952 408.819 117.732C408.819 112.511 404.591 108.279 399.375 108.279C394.159 108.279 389.931 112.511 389.931 117.732C389.931 122.952 394.159 127.185 399.375 127.185Z" fill="white"/>
<path d="M347.685 83.2577L336.252 81.6711L334.667 93.1152L346.1 94.7017L347.685 83.2577Z" fill="#3F3D56"/>
<path d="M401.474 196.451C403.298 188.273 397.466 180.009 388.447 177.993C379.428 175.977 370.637 180.973 368.813 189.152C366.988 197.33 372.965 200.347 381.984 202.363C391.004 204.378 399.649 204.63 401.474 196.451Z" fill="#F2F2F2"/>
<path d="M384.224 250.672C387.375 250.442 389.859 249.296 389.773 248.113C389.686 246.931 387.062 246.159 383.911 246.39C380.76 246.62 378.275 247.766 378.362 248.949C378.448 250.131 381.073 250.903 384.224 250.672Z" fill="#2F2E41"/>
</g>
<defs>
<clipPath id="clip0">
<rect width="461" height="290" fill="white"/>
</clipPath>
</defs>
</svg>
